<svg xmlns="http://www.w3.org/2000/svg" viewBox="7.83 0 888.0699999999998 773.27">
  <path d="M21.83,0C1.49,0-7.76,25.4,7.83,38.47L29.5,56.65l297.84,249.9,23,19.35.13,0V326l5.23,29.59,67.45,382.64,4.92,27.92c3.53,20,30.12,24.71,40.29,7.12l14.19-24.54v-.05L603.83,538.6l28.76-49.86L882.06,56.65l4.31-7.45,9.53-16.51A21.79,21.79,0,0,0,877,0ZM379.54,276.4l-44.36-37.21L117.61,56.65H760.18L397.45,266.07Zm23.14,19.43-.09-.08.09-.05Zm185.85,156L559.77,501.6,467.22,661.87,418,382.64l-10.07-57.22,17.78-10.28L788.28,105.8Z" fill="#ffffff"/>
</svg>