<?xml version="1.0" encoding="utf-8"?>
<!-- Generator: Adobe Illustrator 24.3.0, SVG Export Plug-In . SVG Version: 6.00 Build 0)  -->
<svg version="1.1" id="Layer_1" xmlns="http://www.w3.org/2000/svg" xmlns:xlink="http://www.w3.org/1999/xlink" x="0px" y="0px"
	 viewBox="0 0 48 48" style="enable-background:new 0 0 48 48;" xml:space="preserve">
<style type="text/css">
	.st0{fill:#FFFFFF;}
</style>
<circle class="st0" cx="24" cy="24" r="24"/>
<circle cx="24" cy="24" r="21"/>
<path class="st0" d="M34.2,11.8l-14.8,7c-0.3,0.1-0.6,0.4-0.7,0.7l-7,14.8c-0.3,0.6-0.2,1.3,0.3,1.7c0.3,0.3,0.7,0.4,1.1,0.4
	c0.2,0,0.4,0,0.6-0.1l14.8-7c0.3-0.1,0.6-0.4,0.7-0.7l7-14.8c0.3-0.6,0.2-1.3-0.3-1.7C35.5,11.6,34.8,11.5,34.2,11.8z"/>
<polygon points="26.8,26.8 21.3,21.3 31.8,16.3 "/>
</svg>
